<svg xmlns="http://www.w3.org/2000/svg" version="1.1" width="996" height="1024">
<rect x="0" y="0" width="996" height="1024" fill="#8a8e8d" />
<g transform="scale(4.000000) translate(0.5 0.5)">
<polygon fill="#fbffff" fill-opacity="0.501961" points="217,-16 -16,0 9,108" />
<polygon fill="#1c1715" fill-opacity="0.501961" points="264,240 239,60 175,269" />
<polygon fill="#343e30" fill-opacity="0.501961" points="-16,245 65,71 131,271" />
<polygon fill="#f2ffff" fill-opacity="0.501961" points="168,88 264,51 205,-16" />
<polygon fill="#3c0000" fill-opacity="0.501961" points="109,49 177,20 161,110" />
<polygon fill="#fbffff" fill-opacity="0.501961" points="28,-16 134,81 -16,76" />
<polygon fill="#d9d4f3" fill-opacity="0.501961" points="108,116 201,186 216,100" />
<polygon fill="#725f46" fill-opacity="0.501961" points="-16,161 249,218 9,75" />
<polygon fill="#a5e7ff" fill-opacity="0.501961" points="264,94 264,-4 124,-13" />
<polygon fill="#c0c5ea" fill-opacity="0.501961" points="191,249 108,234 123,150" />
<polygon fill="#130500" fill-opacity="0.501961" points="106,64 186,34 136,16" />
<polygon fill="#3a3733" fill-opacity="0.501961" points="259,81 172,85 263,143" />
<polygon fill="#96d7ff" fill-opacity="0.501961" points="21,42 -16,-16 226,2" />
<polygon fill="#001704" fill-opacity="0.501961" points="100,249 -16,241 49,271" />
<polygon fill="#1c361a" fill-opacity="0.501961" points="79,102 77,135 127,101" />
<polygon fill="#eee2a6" fill-opacity="0.501961" points="90,105 38,89 141,91" />
<polygon fill="#ffffff" fill-opacity="0.501961" points="218,35 216,81 164,71" />
<polygon fill="#efffff" fill-opacity="0.501961" points="117,79 -16,74 89,12" />
<polygon fill="#0d0000" fill-opacity="0.501961" points="184,37 182,59 147,31" />
<polygon fill="#793314" fill-opacity="0.501961" points="204,189 144,168 160,214" />
<polygon fill="#da965e" fill-opacity="0.501961" points="170,52 144,37 174,108" />
<polygon fill="#002a11" fill-opacity="0.501961" points="119,176 65,174 112,195" />
<polygon fill="#000507" fill-opacity="0.501961" points="221,168 264,142 213,135" />
<polygon fill="#321300" fill-opacity="0.501961" points="136,271 160,250 121,243" />
<polygon fill="#e0804c" fill-opacity="0.501961" points="91,121 124,121 167,175" />
<polygon fill="#c4c3c2" fill-opacity="0.501961" points="190,141 257,131 163,120" />
<polygon fill="#bfae76" fill-opacity="0.501961" points="76,125 8,76 51,76" />
<polygon fill="#3c6b60" fill-opacity="0.501961" points="214,133 218,63 243,63" />
<polygon fill="#96c5f9" fill-opacity="0.501961" points="105,-4 219,45 264,0" />
<polygon fill="#75716a" fill-opacity="0.501961" points="116,157 -4,136 -16,209" />
<polygon fill="#fdffff" fill-opacity="0.501961" points="127,66 129,83 75,53" />
<polygon fill="#432a0e" fill-opacity="0.501961" points="113,90 149,69 147,92" />
<polygon fill="#d5d3df" fill-opacity="0.501961" points="165,176 213,135 202,184" />
<polygon fill="#d6d2d4" fill-opacity="0.501961" points="166,217 183,271 184,205" />
<polygon fill="#665e5f" fill-opacity="0.501961" points="179,250 264,235 190,183" />
<polygon fill="#44347e" fill-opacity="0.501961" points="1,218 114,204 -10,261" />
<polygon fill="#dcd9e6" fill-opacity="0.501961" points="187,91 219,130 169,113" />
<polygon fill="#a35d31" fill-opacity="0.501961" points="138,57 155,114 184,96" />
<polygon fill="#eff6f5" fill-opacity="0.501961" points="126,40 -16,83 -13,22" />
<polygon fill="#f8f8f6" fill-opacity="0.501961" points="185,46 249,39 264,71" />
<polygon fill="#e0e19a" fill-opacity="0.501961" points="25,130 14,145 -1,128" />
<polygon fill="#304826" fill-opacity="0.501961" points="86,80 119,85 77,90" />
<polygon fill="#e5fafb" fill-opacity="0.501961" points="214,81 190,37 171,79" />
<polygon fill="#aec0e6" fill-opacity="0.501961" points="135,93 117,120 157,111" />
<polygon fill="#acd8fd" fill-opacity="0.501961" points="-16,21 120,39 140,-16" />
<polygon fill="#45674e" fill-opacity="0.501961" points="40,116 105,101 25,98" />
<polygon fill="#4b2412" fill-opacity="0.501961" points="23,132 49,116 100,129" />
<polygon fill="#b2c3e2" fill-opacity="0.501961" points="123,167 106,222 129,245" />
<polygon fill="#557e48" fill-opacity="0.501961" points="-14,176 114,190 -16,222" />
<polygon fill="#c6bbb7" fill-opacity="0.501961" points="54,149 56,186 45,167" />
<polygon fill="#120f11" fill-opacity="0.501961" points="229,245 254,255 260,228" />
<polygon fill="#703d28" fill-opacity="0.501961" points="117,182 120,160 78,137" />
<polygon fill="#010000" fill-opacity="0.501961" points="106,55 158,28 122,61" />
<polygon fill="#394e32" fill-opacity="0.501961" points="44,87 56,78 78,88" />
<polygon fill="#efa487" fill-opacity="0.501961" points="80,118 56,112 67,127" />
<polygon fill="#b2ad77" fill-opacity="0.501961" points="-16,76 34,123 35,76" />
<polygon fill="#94796c" fill-opacity="0.501961" points="87,271 107,218 129,271" />
<polygon fill="#080b07" fill-opacity="0.501961" points="214,132 264,144 217,148" />
<polygon fill="#3b373b" fill-opacity="0.501961" points="220,163 183,237 187,198" />
<polygon fill="#4f2911" fill-opacity="0.501961" points="146,34 184,51 175,63" />
<polygon fill="#e8d0a5" fill-opacity="0.501961" points="30,98 67,98 17,73" />
<polygon fill="#58634c" fill-opacity="0.501961" points="22,78 6,78 26,107" />
<polygon fill="#c4b0a3" fill-opacity="0.501961" points="216,106 228,84 213,96" />
<polygon fill="#000000" fill-opacity="0.501961" points="245,130 214,122 264,121" />
<polygon fill="#544a47" fill-opacity="0.501961" points="149,103 157,133 161,89" />
<polygon fill="#1b282a" fill-opacity="0.501961" points="72,148 54,167 68,123" />
<polygon fill="#67a552" fill-opacity="0.501961" points="56,253 -16,247 41,271" />
<polygon fill="#15272a" fill-opacity="0.501961" points="57,140 45,139 33,171" />
<polygon fill="#a89897" fill-opacity="0.501961" points="219,214 194,234 185,226" />
<polygon fill="#745f4b" fill-opacity="0.501961" points="160,18 116,48 131,18" />
<polygon fill="#cac4b5" fill-opacity="0.501961" points="67,171 67,152 78,143" />
<polygon fill="#8a8e9f" fill-opacity="0.501961" points="176,227 145,226 125,149" />
<polygon fill="#4b4945" fill-opacity="0.501961" points="205,106 221,84 175,82" />
<polygon fill="#a68e86" fill-opacity="0.501961" points="68,178 17,172 14,188" />
<polygon fill="#6c6361" fill-opacity="0.501961" points="263,123 179,81 218,121" />
<polygon fill="#4d3f43" fill-opacity="0.501961" points="59,227 6,171 1,194" />
<polygon fill="#b8a294" fill-opacity="0.501961" points="93,168 78,176 92,144" />
<polygon fill="#120808" fill-opacity="0.501961" points="83,117 72,128 104,132" />
<polygon fill="#679d6a" fill-opacity="0.501961" points="28,192 114,209 86,182" />
<polygon fill="#e8e6d4" fill-opacity="0.501961" points="245,50 240,82 264,88" />
<polygon fill="#025c48" fill-opacity="0.501961" points="92,120 121,112 63,110" />
<polygon fill="#bcddf3" fill-opacity="0.501961" points="175,10 189,48 244,47" />
<polygon fill="#000b13" fill-opacity="0.501961" points="264,84 256,101 233,86" />
<polygon fill="#ddd4a2" fill-opacity="0.501961" points="264,131 242,136 222,129" />
<polygon fill="#bebda9" fill-opacity="0.501961" points="15,145 37,174 23,165" />
<polygon fill="#838587" fill-opacity="0.501961" points="262,219 192,241 228,243" />
<polygon fill="#c1c2cd" fill-opacity="0.501961" points="178,246 146,248 186,199" />
<polygon fill="#455349" fill-opacity="0.501961" points="-2,132 39,180 11,165" />
<polygon fill="#9fabc8" fill-opacity="0.501961" points="103,116 154,134 155,107" />
<polygon fill="#a36648" fill-opacity="0.501961" points="167,167 114,136 166,190" />
<polygon fill="#a2987e" fill-opacity="0.501961" points="92,102 69,108 118,111" />
<polygon fill="#dfdabc" fill-opacity="0.501961" points="15,107 -7,79 12,86" />
<polygon fill="#b4734b" fill-opacity="0.501961" points="85,150 87,125 105,147" />
<polygon fill="#3f4143" fill-opacity="0.501961" points="225,208 220,271 264,164" />
<polygon fill="#d3cfb4" fill-opacity="0.501961" points="41,144 36,151 28,140" />
<polygon fill="#736c6b" fill-opacity="0.501961" points="169,206 214,184 264,197" />
<polygon fill="#edf7f1" fill-opacity="0.501961" points="51,80 130,21 86,79" />
<polygon fill="#e2e6e5" fill-opacity="0.501961" points="241,249 228,251 259,268" />
<polygon fill="#4f9441" fill-opacity="0.501961" points="109,221 86,247 40,241" />
<polygon fill="#c38666" fill-opacity="0.501961" points="173,65 131,68 174,49" />
<polygon fill="#3a4344" fill-opacity="0.501961" points="216,176 252,154 213,142" />
<polygon fill="#3d240d" fill-opacity="0.501961" points="135,65 106,59 154,34" />
<polygon fill="#1a1a0b" fill-opacity="0.501961" points="163,50 182,30 161,24" />
<polygon fill="#000503" fill-opacity="0.501961" points="94,252 92,268 40,247" />
<polygon fill="#ecdcb1" fill-opacity="0.501961" points="121,101 143,91 92,92" />
<polygon fill="#69a469" fill-opacity="0.501961" points="-16,128 -16,88 43,124" />
<polygon fill="#000000" fill-opacity="0.501961" points="205,244 192,247 207,249" />
<polygon fill="#9c7858" fill-opacity="0.501961" points="127,257 157,267 199,241" />
<polygon fill="#000000" fill-opacity="0.501961" points="2,246 33,249 19,243" />
<polygon fill="#babca9" fill-opacity="0.501961" points="69,89 56,88 53,109" />
<polygon fill="#544c7e" fill-opacity="0.501961" points="115,234 38,210 93,200" />
<polygon fill="#adafc4" fill-opacity="0.501961" points="150,151 193,184 200,89" />
<polygon fill="#9e9184" fill-opacity="0.501961" points="57,122 62,143 50,127" />
<polygon fill="#90898c" fill-opacity="0.501961" points="219,210 249,208 223,218" />
<polygon fill="#99c6ec" fill-opacity="0.501961" points="264,40 222,-16 120,12" />
<polygon fill="#a7a9c0" fill-opacity="0.501961" points="152,249 116,236 127,150" />
<polygon fill="#a98c71" fill-opacity="0.501961" points="163,23 131,38 143,25" />
<polygon fill="#828cb1" fill-opacity="0.501961" points="109,154 106,136 136,160" />
<polygon fill="#70c2b3" fill-opacity="0.501961" points="240,77 233,67 210,71" />
<polygon fill="#e1eeeb" fill-opacity="0.501961" points="174,82 231,60 167,66" />
<polygon fill="#804d32" fill-opacity="0.501961" points="131,164 173,211 197,186" />
<polygon fill="#d46e41" fill-opacity="0.501961" points="43,83 30,75 18,79" />
<polygon fill="#d0cba9" fill-opacity="0.501961" points="107,91 114,79 111,109" />
<polygon fill="#9a9a95" fill-opacity="0.501961" points="231,175 214,181 234,164" />
<polygon fill="#14191a" fill-opacity="0.501961" points="225,211 264,200 230,200" />
<polygon fill="#458340" fill-opacity="0.501961" points="90,181 33,201 112,197" />
<polygon fill="#c0bcc8" fill-opacity="0.501961" points="209,169 161,178 210,117" />
<polygon fill="#e9f0f1" fill-opacity="0.501961" points="-16,23 121,42 41,80" />
<polygon fill="#4f5d3e" fill-opacity="0.501961" points="75,90 78,81 44,79" />
<polygon fill="#374439" fill-opacity="0.501961" points="60,99 88,108 88,99" />
<polygon fill="#2d373a" fill-opacity="0.501961" points="37,182 67,182 34,192" />
<polygon fill="#a7a2bc" fill-opacity="0.501961" points="57,189 36,195 28,189" />
<polygon fill="#c5c4d7" fill-opacity="0.501961" points="194,96 158,148 161,109" />
<polygon fill="#c48b68" fill-opacity="0.501961" points="171,181 151,174 134,142" />
<polygon fill="#162020" fill-opacity="0.501961" points="207,91 221,87 188,83" />
<polygon fill="#aea394" fill-opacity="0.501961" points="8,152 12,175 -16,149" />
<polygon fill="#a19299" fill-opacity="0.501961" points="248,99 234,91 235,99" />
<polygon fill="#633518" fill-opacity="0.501961" points="166,84 143,39 137,55" />
<polygon fill="#bec2b4" fill-opacity="0.501961" points="54,153 62,140 57,138" />
<polygon fill="#1b2422" fill-opacity="0.501961" points="217,208 203,186 217,197" />
<polygon fill="#08161b" fill-opacity="0.501961" points="251,218 244,225 234,212" />
<polygon fill="#9190a4" fill-opacity="0.501961" points="165,167 153,157 194,123" />
<polygon fill="#cba283" fill-opacity="0.501961" points="165,73 162,46 151,41" />
<polygon fill="#261909" fill-opacity="0.501961" points="30,129 43,131 63,116" />
<polygon fill="#565a4b" fill-opacity="0.501961" points="44,176 6,132 46,156" />
<polygon fill="#43573f" fill-opacity="0.501961" points="82,82 110,91 111,81" />
<polygon fill="#e9f9f6" fill-opacity="0.501961" points="126,65 123,81 66,57" />
<polygon fill="#ac7750" fill-opacity="0.501961" points="172,64 157,89 150,79" />
<polygon fill="#abd3f4" fill-opacity="0.501961" points="124,40 113,-15 -16,2" />
<polygon fill="#172733" fill-opacity="0.501961" points="80,163 72,171 77,151" />
<polygon fill="#dfa781" fill-opacity="0.501961" points="180,96 172,97 167,73" />
<polygon fill="#f7eabc" fill-opacity="0.501961" points="81,97 62,90 101,90" />
<polygon fill="#ffaa89" fill-opacity="0.501961" points="47,115 41,120 57,115" />
<polygon fill="#0e0e12" fill-opacity="0.501961" points="235,108 226,97 229,87" />
<polygon fill="#005c45" fill-opacity="0.501961" points="44,116 65,110 38,110" />
<polygon fill="#0b0e09" fill-opacity="0.501961" points="141,36 120,63 108,52" />
<polygon fill="#72727c" fill-opacity="0.501961" points="164,235 147,239 135,233" />
<polygon fill="#ac9497" fill-opacity="0.501961" points="222,253 195,265 199,252" />
<polygon fill="#015c47" fill-opacity="0.501961" points="228,63 242,67 216,67" />
<polygon fill="#675444" fill-opacity="0.501961" points="121,34 158,20 132,19" />
<polygon fill="#e7f1f2" fill-opacity="0.501961" points="178,64 234,63 189,42" />
<polygon fill="#0a0e0d" fill-opacity="0.501961" points="214,117 235,126 216,125" />
<polygon fill="#2f291d" fill-opacity="0.501961" points="137,247 127,252 122,241" />
<polygon fill="#552b20" fill-opacity="0.501961" points="160,110 145,71 129,74" />
<polygon fill="#00684d" fill-opacity="0.501961" points="218,75 236,77 219,80" />
<polygon fill="#14201f" fill-opacity="0.501961" points="264,161 239,144 240,165" />
<polygon fill="#fff9ce" fill-opacity="0.501961" points="48,81 42,72 41,97" />
<polygon fill="#989ca7" fill-opacity="0.501961" points="241,229 228,228 237,239" />
<polygon fill="#b5aaa3" fill-opacity="0.501961" points="180,256 179,240 192,239" />
<polygon fill="#504142" fill-opacity="0.501961" points="253,97 264,112 211,117" />
<polygon fill="#7d8098" fill-opacity="0.501961" points="11,213 3,218 28,242" />
<polygon fill="#1d1315" fill-opacity="0.501961" points="221,248 214,257 215,238" />
<polygon fill="#7c808d" fill-opacity="0.501961" points="122,207 144,216 133,201" />
<polygon fill="#ac9f8d" fill-opacity="0.501961" points="217,101 198,93 227,94" />
<polygon fill="#587f50" fill-opacity="0.501961" points="1,248 69,254 3,271" />
<polygon fill="#d7cfaf" fill-opacity="0.501961" points="93,94 93,108 88,109" />
<polygon fill="#e6f0ee" fill-opacity="0.501961" points="1,76 117,30 96,77" />
<polygon fill="#bc9759" fill-opacity="0.501961" points="34,119 5,118 39,110" />
<polygon fill="#292820" fill-opacity="0.501961" points="186,221 215,212 201,222" />
<polygon fill="#635638" fill-opacity="0.501961" points="55,93 57,97 68,93" />
<polygon fill="#97786b" fill-opacity="0.501961" points="102,122 86,117 81,123" />
<polygon fill="#ce9871" fill-opacity="0.501961" points="70,125 58,124 67,117" />
<polygon fill="#b7b6ab" fill-opacity="0.501961" points="73,138 80,138 73,155" />
<polygon fill="#bebba1" fill-opacity="0.501961" points="36,151 41,133 44,139" />
<polygon fill="#acd7f6" fill-opacity="0.501961" points="186,31 130,5 184,12" />
<polygon fill="#000502" fill-opacity="0.501961" points="236,193 263,186 249,182" />
<polygon fill="#323e37" fill-opacity="0.501961" points="61,128 61,172 74,134" />
<polygon fill="#d0d0db" fill-opacity="0.501961" points="182,92 187,114 220,119" />
<polygon fill="#121311" fill-opacity="0.501961" points="109,176 86,178 114,185" />
<polygon fill="#b7c1d7" fill-opacity="0.501961" points="124,165 134,192 108,218" />
<polygon fill="#818185" fill-opacity="0.501961" points="242,117 244,102 253,125" />
<polygon fill="#000814" fill-opacity="0.501961" points="222,109 219,107 222,99" />
<polygon fill="#3c2c1d" fill-opacity="0.501961" points="169,25 177,61 184,47" />
<polygon fill="#36282a" fill-opacity="0.501961" points="264,270 242,229 239,244" />
<polygon fill="#1b2a2f" fill-opacity="0.501961" points="186,195 206,191 222,171" />
<polygon fill="#2a2823" fill-opacity="0.501961" points="202,223 241,224 223,230" />
<polygon fill="#decc98" fill-opacity="0.501961" points="134,99 147,94 126,92" />
<polygon fill="#ede9c0" fill-opacity="0.501961" points="89,80 132,82 123,72" />
<polygon fill="#c4abb8" fill-opacity="0.501961" points="74,188 66,186 74,181" />
<polygon fill="#d3d4df" fill-opacity="0.501961" points="211,150 204,133 213,118" />
</g>
</svg>